# xmcd
#
# Track frame offsets:
#	150
#	11437
#	25087
#	36609
#	50115
#	64319
#	77170
#	89350
#	100046
#	112710
#	124994
#	139559
#	151426
#	164206
#	175738
#	188888
#	202133
#	213893
#	225567
#	235997
#
# Disc length: 3327 seconds
#
# Revision: 1
# Processed by: cddbd v1.5.2PL0 Copyright (c) Steve Scherf et al.
# Submitted via: audiograbber 1.83.01
#
DISCID=160cfd14
DTITLE=Ray Charles - The Signature Collection (Disc1)
DYEAR=2007
DGENRE=Soul
TTITLE0=Hallelujah, I love Her So
TTITLE1=A Fool For You
TTITLE2=Lonely Avenue
TTITLE3=Baby Let Me Hold Your Hand
TTITLE4=Kissa Me Baby
TTITLE5=Don´t Put All Your Dreams In One Basket
TTITLE6=Honey Honey
TTITLE7=Th´ Ego Song
TTITLE8=Why Did You Go?
TTITLE9=It Should´ve Been Me
TTITLE10=Funny, But I Still Love You
TTITLE11=If I Give You My Love
TTITLE12=Lonely Boy
TTITLE13=Guitar Blues
TTITLE14=Baby Won´t You Please Come Home
TTITLE15=Don´t You Know
TTITLE16=How Long, How Long Blues
TTITLE17=See See Rider
TTITLE18=Hey Now
TTITLE19=The Midnight Hour
EXTD=
EXTT0=
EXTT1=
EXTT2=
EXTT3=
EXTT4=
EXTT5=
EXTT6=
EXTT7=
EXTT8=
EXTT9=
EXTT10=
EXTT11=
EXTT12=
EXTT13=
EXTT14=
EXTT15=
EXTT16=
EXTT17=
EXTT18=
EXTT19=
PLAYORDER=
